<svg width="1222" height="1262" viewBox="0 0 1222 1262" fill="none" xmlns="http://www.w3.org/2000/svg">
<mask id="path-1-inside-1" fill="white">
<rect x="0.158447" y="119.251" width="1126" height="1147" rx="5" transform="rotate(-5 0.158447 119.251)"/>
</mask>
<rect x="0.158447" y="119.251" width="1126" height="1147" rx="5" transform="rotate(-5 0.158447 119.251)" fill="#F0F0F0" stroke="#6A84A0" stroke-width="20" mask="url(#path-1-inside-1)"/>
<path d="M307.643 443.828H413.6C429.713 443.828 443.303 438.62 454.371 428.203C465.602 417.786 471.217 402.975 471.217 383.77C471.217 369.609 465.357 356.914 453.639 345.684C441.92 334.29 428.574 328.594 413.6 328.594H262.721V645H245.143V311.016H413.6C433.456 311.016 450.953 318.421 466.09 333.232C481.227 347.881 488.795 364.727 488.795 383.77C488.795 407.207 481.471 426.006 466.822 440.166C452.174 454.326 434.433 461.406 413.6 461.406H307.643V443.828ZM307.643 478.984H413.6C438.99 478.984 460.8 470.114 479.029 452.373C497.258 434.469 506.373 411.602 506.373 383.77C506.373 359.844 497.014 338.848 478.297 320.781C459.742 302.552 438.176 293.438 413.6 293.438H227.564V645H209.986V275.859H413.6C432.968 275.859 451.116 280.824 468.043 290.752C485.133 300.68 498.723 314.027 508.814 330.791C518.906 347.393 523.951 365.052 523.951 383.77C523.951 415.833 513.046 442.689 491.236 464.336C469.589 485.82 443.71 496.562 413.6 496.562H307.643V478.984ZM307.643 514.141H413.6C436.386 514.141 457.545 508.525 477.076 497.295C496.607 486.064 512.232 470.439 523.951 450.42C535.67 430.238 541.529 408.021 541.529 383.77C541.529 361.797 535.67 341.208 523.951 322.002C512.395 302.633 496.77 287.171 477.076 275.615C457.382 264.059 436.223 258.281 413.6 258.281H192.408V645H174.83V240.703H413.6C439.153 240.703 463.16 247.295 485.621 260.479C508.082 273.499 525.904 291.077 539.088 313.213C552.434 335.186 559.107 358.704 559.107 383.77C559.107 412.741 552.841 438.213 540.309 460.186C527.939 482.158 511.093 499.329 489.771 511.699L535.182 645H516.627L473.17 520C466.66 522.604 461.695 524.395 458.277 525.371L499.049 645H480.494L440.699 529.521C439.234 529.847 434.026 530.417 425.074 531.23L462.916 645H444.361L407.008 531.719H391.139L426.783 645H408.229L372.34 531.719H307.643V514.141ZM297.877 645H280.299V346.172H413.6C424.505 346.172 433.863 349.915 441.676 357.402C449.651 364.727 453.639 373.516 453.639 383.77C453.639 412.09 440.292 426.25 413.6 426.25H307.643V408.672H413.6C420.598 408.672 426.051 406.882 429.957 403.301C434.026 399.557 436.061 393.047 436.061 383.77C436.061 378.073 433.863 373.353 429.469 369.609C425.237 365.703 419.947 363.75 413.6 363.75H297.877V645Z" fill="#003366"/>
<path d="M887.721 898.539L905.299 865.336V1046H887.721V898.539ZM922.877 831.156L940.455 797.953V1046H922.877V831.156ZM958.033 764.75L975.611 731.303V1046H958.033V764.75ZM840.113 890.238L830.104 871.928L951.197 641.703H970.973L840.113 890.238ZM819.85 851.908L809.596 833.354L911.158 641.703H931.178L819.85 851.908ZM702.174 867.289L719.752 900.492V1046H702.174V867.289ZM667.018 800.395L684.596 833.598V1046H667.018V800.395ZM631.861 733.5L649.439 766.947V1046H631.861V733.5ZM773.951 940.531H754.176L614.283 675.15V1046H596.705V641.703H616.48L773.951 940.531ZM813.746 940.531H793.727L636.5 641.703H656.52L813.746 940.531ZM993.189 675.15L853.297 940.531H833.277L676.295 641.703H696.07L843.531 921.977L990.748 641.703H1010.77V1046H993.189V675.15Z" fill="#003366"/>
</svg>
