<svg width="49" height="43" viewBox="0 0 49 43" fill="none" xmlns="http://www.w3.org/2000/svg">
<path fill-rule="evenodd" clip-rule="evenodd" d="M13.7333 10.75C13.3272 10.7681 12.9459 10.9271 12.6733 11.1919C12.4007 11.4567 12.2592 11.8056 12.2798 12.162C12.3004 12.5184 12.4815 12.853 12.7833 13.0922C13.085 13.3314 13.4827 13.4556 13.8888 13.4375H35.111C35.3139 13.44 35.5153 13.4071 35.7036 13.3407C35.8919 13.2743 36.0633 13.1758 36.2078 13.0507C36.3523 12.9257 36.4671 12.7767 36.5454 12.6124C36.6237 12.4482 36.664 12.2719 36.664 12.0938C36.664 11.9157 36.6237 11.7394 36.5454 11.5751C36.4671 11.4108 36.3523 11.2618 36.2078 11.1368C36.0633 11.0118 35.8919 10.9132 35.7036 10.8468C35.5153 10.7804 35.3139 10.7475 35.111 10.75H13.8888C13.837 10.7477 13.7851 10.7477 13.7333 10.75ZM13.7333 18.8125C13.3272 18.8306 12.9459 18.9896 12.6733 19.2544C12.4007 19.5192 12.2592 19.8681 12.2798 20.2245C12.3004 20.5809 12.4815 20.9155 12.7833 21.1547C13.085 21.3939 13.4827 21.5181 13.8888 21.5H35.111C35.3139 21.5025 35.5153 21.4696 35.7036 21.4032C35.8919 21.3368 36.0633 21.2383 36.2078 21.1132C36.3523 20.9882 36.4671 20.8392 36.5454 20.6749C36.6237 20.5107 36.664 20.3344 36.664 20.1563C36.664 19.9782 36.6237 19.8019 36.5454 19.6376C36.4671 19.4733 36.3523 19.3243 36.2078 19.1993C36.0633 19.0743 35.8919 18.9757 35.7036 18.9093C35.5153 18.8429 35.3139 18.81 35.111 18.8125H13.8888C13.837 18.8102 13.7851 18.8102 13.7333 18.8125ZM13.7333 26.875C13.3272 26.8931 12.9459 27.0521 12.6733 27.3169C12.4007 27.5817 12.2592 27.9306 12.2798 28.287C12.3004 28.6434 12.4815 28.978 12.7833 29.2172C13.085 29.4564 13.4827 29.5806 13.8888 29.5625H35.111C35.3139 29.565 35.5153 29.5321 35.7036 29.4657C35.8919 29.3993 36.0633 29.3008 36.2078 29.1757C36.3523 29.0507 36.4671 28.9017 36.5454 28.7374C36.6237 28.5732 36.664 28.3969 36.664 28.2188C36.664 28.0407 36.6237 27.8644 36.5454 27.7001C36.4671 27.5358 36.3523 27.3868 36.2078 27.2618C36.0633 27.1368 35.8919 27.0382 35.7036 26.9718C35.5153 26.9054 35.3139 26.8725 35.111 26.875H13.8888C13.837 26.8727 13.7851 26.8727 13.7333 26.875Z" fill="#003366"/>
</svg>
