<svg width="43" height="43" viewBox="0 0 43 43" fill="none" xmlns="http://www.w3.org/2000/svg">
<path d="M32.9131 5.53615L37.1557 9.77879L32.9131 14.0214C32.9131 14.0214 34.0382 15.3239 34.327 16.0155C34.6395 16.7637 34.7168 18.3408 34.7168 18.3408H40.7168V24.3408H34.7168C34.7168 24.3408 34.5927 25.694 34.327 26.3408C33.9998 27.1372 32.938 28.6704 32.938 28.6704L37.1806 32.9131L32.938 37.1557L28.6954 32.9131C28.6954 32.9131 27.5316 33.8252 26.8277 34.1192C26.0918 34.4265 24.376 34.7168 24.376 34.7168V40.7168H18.376V34.7168C18.376 34.7168 16.7436 34.622 16.0256 34.327C15.3004 34.029 14.0464 32.938 14.0464 32.938L9.80374 37.1806L5.5611 32.938L9.80374 28.6954C9.80374 28.6954 8.96613 27.3421 8.65954 26.6079C8.36488 25.9023 8 24.376 8 24.376H2V18.376H8C8 18.376 8.0899 16.7455 8.3898 16.0155C8.68283 15.3022 9.77879 14.0464 9.77879 14.0464L5.53615 9.80374L9.77879 5.5611L14.0214 9.80374C14.0214 9.80374 15.2855 8.82584 16.0256 8.51677C16.7253 8.22459 18.3408 8 18.3408 8V2H24.3408V6.63592L26.3408 4.81748V1.99222C26.3408 0.89195 25.4533 0 24.3411 0H18.3404C17.236 0 16.3408 0.88887 16.3408 2.00592V6.02405L14.0093 6.96323L11.1875 4.14138C10.4095 3.36337 9.15128 3.36018 8.36485 4.14661L4.12166 8.38979C3.34077 9.17069 3.33625 10.4323 4.12612 11.2221L6.96737 14.0634L5.98291 16.376H1.99222C0.89195 16.376 0 17.2635 0 18.3757V24.3764C0 25.4808 0.88887 26.376 2.00592 26.376H6.02405L6.96323 28.7074L4.14138 31.5293C3.36337 32.3073 3.36018 33.5655 4.14661 34.3519L8.3898 38.5951C9.17069 39.376 10.4323 39.3805 11.2221 38.5907L14.0634 35.7494L16.376 36.7339V40.7246C16.376 41.8248 17.2635 42.7168 18.3757 42.7168H24.3764C25.4808 42.7168 26.376 41.8279 26.376 40.7109V36.6927L28.7075 35.7536L31.5293 38.5754C32.3073 39.3534 33.5655 39.3566 34.352 38.5702L38.5951 34.327C39.376 33.5461 39.3806 32.2845 38.5907 31.4947L35.7494 28.6534L36.7339 26.3408H40.7246C41.8249 26.3408 42.7168 25.4533 42.7168 24.3411V18.3404C42.7168 17.236 41.8279 16.3408 40.7109 16.3408H36.6927L35.7536 14.0093L38.5754 11.1875C39.3534 10.4095 39.3566 9.15128 38.5702 8.36485L34.327 4.12167C33.5461 3.34077 32.1192 3.33179 31.3293 4.12167L24.1579 11.4134C23.261 11.1444 22.3117 11 21.3293 11C15.8064 11 11.3293 15.5621 11.3293 21.1898C11.3293 26.8174 15.8064 31.3795 21.3293 31.3795C26.8521 31.3795 31.3293 26.8174 31.3293 21.1898C31.3293 19.1039 30.7142 17.1644 29.6588 15.5493L28.3773 16.921C29.0774 18.1228 29.4785 19.5203 29.4785 21.0115C29.4785 25.5058 25.8351 29.1492 21.3408 29.1492C16.8464 29.1492 13.203 25.5058 13.203 21.0115C13.203 16.5171 16.8464 12.8738 21.3408 12.8738C22.6842 12.8738 23.8389 12.9118 24.9557 13.4883L32.9131 5.53615Z" fill="#33475B"/>
</svg>
